<svg width="23.000000" height="23.000000" viewBox="0 0 23 23" fill="none" xmlns="http://www.w3.org/2000/svg" xmlns:xlink="http://www.w3.org/1999/xlink">
	<desc>
			Created with Pixso.
	</desc>
	<defs>
		<clipPath id="clip1_43">
			<rect id="radix-icons:instagram-logo" width="23.000000" height="23.000000" fill="white" fill-opacity="0"/>
		</clipPath>
	</defs>
	<rect id="radix-icons:instagram-logo" width="23.000000" height="23.000000" fill="#FFFFFF" fill-opacity="0"/>
	<g clip-path="url(#clip1_43)">
		<path id="Vector" d="M19.7953 19.7938C20.2952 19.2924 20.6877 18.6898 20.9438 18.0289C21.1891 17.3941 21.3578 16.6704 21.4069 15.6093C21.4559 14.5467 21.4681 14.2063 21.4681 11.5C21.4681 8.79367 21.4559 8.45327 21.4069 7.39067C21.3578 6.32961 21.1891 5.60587 20.9438 4.97107C20.6934 4.30613 20.3009 3.70383 19.7938 3.20621C19.2961 2.69913 18.6938 2.30668 18.0289 2.05621C17.3942 1.81087 16.6704 1.64221 15.6094 1.59314C14.5468 1.54408 14.2063 1.53334 11.5 1.53334C8.7937 1.53334 8.45325 1.54408 7.39062 1.59467C6.32959 1.64067 5.60583 1.80934 4.97107 2.05621C4.3064 2.30725 3.70435 2.69963 3.20618 3.20621C2.69958 3.7043 2.30725 4.30647 2.05615 4.97107C1.81091 5.60587 1.64221 6.32961 1.59314 7.39067C1.54407 8.45327 1.53333 8.79367 1.53333 11.5C1.53333 14.2063 1.54407 14.5467 1.5946 15.6093C1.64062 16.6704 1.80933 17.3941 2.05615 18.0289C2.30762 18.6944 2.7002 19.2955 3.20618 19.7938C3.70447 20.2998 4.30713 20.6923 4.97107 20.9438C5.60583 21.1891 6.32959 21.3578 7.39062 21.4069C8.45325 21.4544 8.7937 21.4667 11.5 21.4667C14.2063 21.4667 14.5468 21.4544 15.6094 21.4053C16.6704 21.3593 17.3942 21.1907 18.0289 20.9438C18.6909 20.6876 19.292 20.2959 19.7938 19.7938L19.7953 19.7938M3.06665 10.327L3.06665 12.673C3.0636 13.9319 3.0636 14.2585 3.09729 14.973C3.13721 15.8715 3.18628 16.5309 3.33655 17.0277C3.48071 17.5061 3.6416 17.9937 4.16907 18.5794C4.69653 19.1667 5.2041 19.4319 5.8512 19.6282C6.49976 19.8229 7.31396 19.8643 8.02087 19.8965C8.82129 19.9333 9.14014 19.9333 10.8207 19.9333L12.6346 19.9333C13.9258 19.9349 14.2507 19.9364 14.9745 19.9027C15.8716 19.8613 16.5309 19.8122 17.0292 19.6635C17.5061 19.5193 17.9937 19.3568 18.5793 18.8309C19.1666 18.3034 19.4319 17.7943 19.6282 17.1473C19.8229 16.5002 19.8658 15.686 19.8981 14.9791C19.9333 14.1787 19.9333 13.8613 19.9333 12.1854L19.9333 10.8207C19.9333 9.14021 19.9333 8.82281 19.8981 8.02087C19.8658 7.31401 19.8229 6.49981 19.6282 5.85274C19.4335 5.20414 19.1682 4.69661 18.5793 4.16914C17.9921 3.64167 17.5061 3.48067 17.0292 3.33654C16.5309 3.18781 15.8716 3.13721 14.9745 3.09734C14.1951 3.06531 13.4148 3.05508 12.6346 3.06667L10.8207 3.06667C9.14014 3.06667 8.82129 3.06667 8.02087 3.10194C7.31396 3.13414 6.49976 3.17707 5.8512 3.37181C5.2041 3.56807 4.69653 3.83334 4.16907 4.42061C3.6416 5.00787 3.47913 5.49394 3.33655 5.97234C3.18628 6.46914 3.13721 7.12847 3.09729 8.02701C3.0636 8.74154 3.0636 9.06814 3.06665 10.327L3.06665 10.327M11.5 8.05001C10.585 8.05001 9.70752 8.41349 9.06042 9.06049C8.41345 9.70749 8.05005 10.585 8.05005 11.5C8.05005 12.415 8.41345 13.2925 9.06042 13.9395C9.70752 14.5865 10.585 14.95 11.5 14.95C12.415 14.95 13.2925 14.5865 13.9395 13.9395C14.5865 13.2925 14.95 12.415 14.95 11.5C14.95 10.585 14.5865 9.70749 13.9395 9.06049C13.2925 8.41349 12.415 8.05001 11.5 8.05001L11.5 8.05001M6.5166 11.5C6.5166 10.1783 7.04163 8.91081 7.9762 7.97626C8.91077 7.0417 10.1783 6.51667 11.5 6.51667C12.8217 6.51667 14.0892 7.0417 15.0237 7.97626C15.9583 8.91081 16.4833 10.1783 16.4833 11.5C16.4833 12.8217 15.9583 14.0892 15.0237 15.0238C14.0892 15.9583 12.8217 16.4833 11.5 16.4833C10.1783 16.4833 8.91077 15.9583 7.9762 15.0238C7.04163 14.0892 6.5166 12.8217 6.5166 11.5L6.5166 11.5M16.8207 7.32934C17.1256 7.32934 17.4182 7.20818 17.6338 6.99251C17.8495 6.77685 17.9707 6.48434 17.9707 6.17934C17.9707 5.87434 17.8495 5.58183 17.6338 5.36617C17.4182 5.1505 17.1256 5.02934 16.8207 5.02934C16.5156 5.02934 16.2231 5.1505 16.0074 5.36617C15.7919 5.58183 15.6707 5.87434 15.6707 6.17934C15.6707 6.48434 15.7919 6.77685 16.0074 6.99251C16.2231 7.20818 16.5156 7.32934 16.8207 7.32934L16.8207 7.32934Z" fill="#111111" fill-opacity="1.000000" fill-rule="evenodd"/>
	</g>
</svg>
